<svg xmlns="http://www.w3.org/2000/svg" xmlns:xlink="http://www.w3.org/1999/xlink" width="500" zoomAndPan="magnify" viewBox="0 0 375 374.999991" height="500" preserveAspectRatio="xMidYMid meet" version="1.0"><defs><g/><clipPath id="9140b89975"><path d="M 121.316406 138.695312 L 142.316406 138.695312 L 142.316406 195.695312 L 121.316406 195.695312 Z M 121.316406 138.695312 " clip-rule="nonzero"/></clipPath><clipPath id="12c6b39a31"><path d="M 227.066406 138.695312 L 248.066406 138.695312 L 248.066406 195.695312 L 227.066406 195.695312 Z M 227.066406 138.695312 " clip-rule="nonzero"/></clipPath></defs><rect x="-37.5" width="450" fill="#ffffff" y="-37.499999" height="449.999989" fill-opacity="1"/><rect x="-37.5" width="450" fill="#f2f2f2" y="-37.499999" height="449.999989" fill-opacity="1"/><path stroke-linecap="butt" transform="matrix(0.75, 0, 0, 0.75, 77.752689, 194.826081)" fill="none" stroke-linejoin="miter" d="M 0.00162301 0.997517 L 103.72038 0.997517 " stroke="#4d4d4d" stroke-width="2" stroke-opacity="1" stroke-miterlimit="4"/><path stroke-linecap="butt" transform="matrix(0.75, 0, 0, 0.75, 113.761732, 266.102503)" fill="none" stroke-linejoin="miter" d="M -0.0000179729 0.998747 L 196.635412 0.998747 " stroke="#4d4d4d" stroke-width="2" stroke-opacity="1" stroke-miterlimit="4"/><path stroke-linecap="butt" transform="matrix(0.75, 0, 0, 0.75, 219.456976, 194.826081)" fill="none" stroke-linejoin="miter" d="M 0.0000730147 0.997517 L 103.71883 0.997517 " stroke="#4d4d4d" stroke-width="2" stroke-opacity="1" stroke-miterlimit="4"/><path fill="#000000" d="M 209.289062 193.109375 C 205.792969 192.160156 203.617188 191.507812 203.058594 191.578125 C 202.238281 191.667969 194.78125 192.601562 186.6875 193.632812 C 208.441406 182.636719 207.105469 183.492188 207.429688 182.839844 C 208.269531 180.972656 208.761719 179.800781 208.816406 179.675781 C 208.902344 179.460938 209.078125 178.925781 208.902344 178.566406 C 208.4375 177.523438 196.914062 154.289062 196.695312 154.027344 C 196.636719 153.859375 195.789062 152.207031 195.046875 150.722656 C 194.699219 150.046875 194.046875 149.617188 193.300781 149.574219 L 190.792969 149.421875 C 188.273438 144.734375 184.652344 139.675781 180.234375 136.699219 C 175.082031 133.222656 168.183594 132.578125 162.230469 135.007812 C 156.484375 137.328125 151.058594 143.027344 149.957031 149.09375 C 148.84375 155.308594 151.136719 161.59375 154.125 167.199219 L 152.90625 169.453125 C 152.472656 170.25 152.46875 171.210938 152.890625 172.019531 L 154.53125 175.125 C 157.980469 181.945312 160.84375 187.59375 165.261719 196.371094 C 165.257812 196.371094 165.25 196.371094 165.25 196.371094 C 165.253906 196.378906 165.261719 196.382812 165.269531 196.390625 C 165.296875 196.445312 166.824219 199.484375 166.855469 199.539062 C 167.105469 200.042969 167.460938 200.324219 167.972656 200.425781 C 168.703125 200.582031 169.714844 200.832031 170.898438 201.085938 C 171.023438 201.1875 171.15625 201.296875 171.273438 201.398438 C 185.15625 199.582031 199.035156 197.773438 212.917969 195.957031 L 212.929688 195.945312 C 212.546875 195.605469 212.140625 195.277344 211.738281 194.9375 C 209.9375 193.429688 209.859375 193.269531 209.289062 193.109375 Z M 175.234375 198.226562 C 175.015625 197.792969 162.347656 172.730469 162.125 172.292969 C 164.730469 170.988281 160.675781 172.957031 189.390625 158.65625 L 202.457031 184.503906 C 200.546875 185.46875 197.253906 187.121094 175.234375 198.226562 Z M 207.921875 178.933594 C 207.9375 179.136719 207.597656 179.902344 206.476562 182.390625 C 206.398438 182.554688 206.1875 182.613281 203.40625 184.027344 L 190.277344 158.046875 C 192.144531 157.105469 194.261719 155.980469 196.066406 155.066406 C 197.882812 158.648438 207.445312 177.882812 207.921875 178.933594 Z M 157.257812 157.609375 C 156.574219 155.140625 156.011719 152.425781 156.867188 149.816406 C 158.324219 145.363281 163.109375 142.109375 167.738281 141.101562 C 174.976562 139.527344 180.296875 144.394531 184.058594 150.796875 L 159.601562 163.1875 C 158.640625 161.421875 157.8125 159.601562 157.257812 157.609375 Z M 153.539062 163.617188 C 151.039062 158.085938 150.230469 153.53125 150.992188 149.28125 C 151.929688 144.132812 156.621094 138.40625 162.628906 135.984375 C 168.242188 133.6875 174.769531 134.28125 179.644531 137.570312 C 184.269531 140.6875 188.132812 146.351562 190.605469 151.304688 C 190.78125 151.617188 190.972656 152.019531 191.015625 152.125 C 190.851562 152.207031 187.828125 153.734375 187.722656 153.789062 C 187.390625 153.070312 186.070312 150.515625 185.917969 150.25 C 180.28125 139.582031 172.109375 136.988281 164.898438 139.5625 C 161.054688 140.953125 157.730469 143.6875 156.015625 146.875 C 152.722656 152.964844 154.78125 160.746094 158.417969 166.707031 L 158.410156 166.710938 C 158.421875 166.730469 158.410156 166.699219 158.875 167.496094 C 159.089844 167.867188 159.253906 168.15625 159.386719 168.375 C 157.019531 169.691406 157.007812 169.707031 156.902344 169.6875 C 156.566406 169.664062 156.15625 168.710938 155.890625 168.21875 C 154.914062 166.519531 154.09375 164.875 153.539062 163.617188 Z M 153.832031 169.953125 L 154.726562 168.296875 C 154.746094 168.332031 154.976562 168.75 155.03125 168.847656 C 154.21875 169.648438 153.835938 170.417969 154.09375 170.933594 C 154.570312 171.871094 156.988281 171.605469 159.488281 170.339844 C 163.507812 168.316406 164.691406 165.398438 161.15625 165.84375 C 160.796875 165.265625 160.453125 164.6875 160.117188 164.105469 L 184.601562 151.703125 C 184.789062 152.011719 184.671875 151.804688 185.441406 153.308594 C 184.128906 154.320312 183.40625 155.402344 183.738281 156.0625 C 184.21875 157 186.582031 156.765625 189.019531 155.53125 C 191.46875 154.300781 193.066406 152.546875 192.585938 151.609375 C 192.441406 151.324219 192.117188 151.152344 191.671875 151.082031 C 191.625 150.992188 191.582031 150.894531 191.535156 150.8125 C 191.484375 150.710938 191.425781 150.613281 191.375 150.511719 L 193.238281 150.625 C 193.609375 150.648438 193.933594 150.863281 194.105469 151.199219 L 195.496094 153.960938 L 155.222656 174.175781 L 153.824219 171.53125 C 153.5625 171.03125 153.566406 170.445312 153.832031 169.953125 Z M 168.183594 199.394531 C 168.011719 199.359375 167.914062 199.304688 167.796875 199.074219 C 167.207031 197.867188 156.226562 176.148438 155.703125 175.113281 C 155.808594 175.0625 161.382812 172.28125 161.027344 172.457031 C 178.757812 207.535156 173.277344 196.691406 174.359375 198.832031 L 173.148438 199.453125 C 171.472656 200.3125 171.785156 200.210938 170.519531 199.925781 C 170.410156 199.902344 168.535156 199.46875 168.183594 199.394531 Z M 168.183594 199.394531 " fill-opacity="1" fill-rule="nonzero"/><path fill="#000000" d="M 190.65625 181.769531 C 190.554688 181.695312 184.832031 177.53125 184.703125 177.441406 C 186.296875 175.117188 185.96875 172.359375 184.292969 170.472656 C 182.421875 168.347656 179.125 168.09375 177.101562 169.515625 C 175.175781 170.75 174.1875 173.082031 174.644531 175.320312 C 175.164062 177.925781 177.425781 179.679688 179.839844 179.796875 C 179.832031 180.804688 179.820312 181.222656 179.796875 187.167969 C 179.796875 187.332031 179.804688 187.449219 179.804688 187.441406 C 179.804688 187.941406 180.121094 188.171875 180.421875 188.171875 C 180.632812 188.171875 180.851562 188.0625 181.101562 187.933594 C 184.363281 186.292969 190.078125 183.414062 190.550781 183.167969 C 191.257812 182.808594 191.40625 182.347656 190.65625 181.769531 Z M 180.851562 186.882812 C 180.859375 184.535156 180.871094 182.1875 180.890625 179.832031 C 180.890625 179.03125 180.679688 178.808594 179.855469 178.746094 C 177.753906 178.574219 176.074219 177.117188 175.675781 175.113281 C 175.277344 173.15625 176.238281 171.164062 177.945312 170.238281 C 175.59375 173.464844 177.613281 177.976562 181.796875 178.3125 C 182.363281 178.355469 182.363281 178.355469 182.363281 178.878906 C 182.34375 181.300781 182.332031 183.722656 182.320312 186.140625 Z M 180.851562 186.882812 " fill-opacity="1" fill-rule="nonzero"/><path fill="#000000" d="M 206.277344 155.808594 C 206.40625 156.074219 206.726562 156.179688 206.980469 156.054688 L 210.171875 154.511719 C 210.433594 154.382812 210.539062 154.066406 210.414062 153.808594 C 210.289062 153.546875 209.972656 153.4375 209.710938 153.5625 L 206.523438 155.105469 C 206.261719 155.234375 206.152344 155.546875 206.277344 155.808594 Z M 206.277344 155.808594 " fill-opacity="1" fill-rule="nonzero"/><path fill="#000000" d="M 206.925781 150.78125 L 204.542969 153.863281 C 204.367188 154.09375 204.40625 154.425781 204.636719 154.601562 C 204.871094 154.78125 205.199219 154.738281 205.378906 154.507812 L 207.757812 151.425781 C 207.9375 151.195312 207.894531 150.863281 207.664062 150.6875 C 207.433594 150.507812 207.101562 150.550781 206.925781 150.78125 Z M 206.925781 150.78125 " fill-opacity="1" fill-rule="nonzero"/><path fill="#000000" d="M 204.402344 148.140625 C 204.121094 148.046875 203.828125 148.195312 203.734375 148.472656 L 202.292969 152.78125 C 202.179688 153.121094 202.429688 153.472656 202.792969 153.472656 C 203.011719 153.472656 203.21875 153.335938 203.292969 153.113281 L 204.734375 148.804688 C 204.824219 148.53125 204.675781 148.230469 204.402344 148.140625 Z M 204.402344 148.140625 " fill-opacity="1" fill-rule="nonzero"/><g clip-path="url(#9140b89975)"><path fill="#000000" d="M 140.996094 175.734375 C 140.460938 173.808594 139.976562 172.300781 139.585938 171.09375 C 138.851562 168.816406 138.449219 167.558594 138.695312 166.53125 C 138.867188 165.800781 139.246094 165.300781 139.578125 164.859375 C 139.980469 164.328125 140.433594 163.726562 139.953125 163.03125 C 139.71875 162.6875 139.207031 162.378906 138.097656 162.839844 C 137.804688 162.960938 137.539062 163.109375 137.34375 163.222656 L 137.34375 160.332031 C 137.34375 160.222656 137.300781 160.121094 137.226562 160.046875 L 136.558594 159.378906 C 136.667969 158.964844 136.722656 158.539062 136.722656 158.105469 C 136.722656 157.652344 136.660156 157.210938 136.542969 156.792969 L 137.234375 156.105469 C 137.308594 156.027344 137.351562 155.925781 137.351562 155.820312 L 137.351562 150.019531 C 137.351562 149.980469 137.34375 149.9375 137.332031 149.898438 L 133.882812 139.019531 C 133.832031 138.855469 133.675781 138.742188 133.503906 138.742188 L 130.132812 138.742188 C 129.957031 138.742188 129.804688 138.855469 129.75 139.019531 L 126.304688 149.898438 C 126.292969 149.9375 126.285156 149.980469 126.285156 150.019531 L 126.285156 155.820312 C 126.285156 155.925781 126.328125 156.027344 126.402344 156.105469 L 127.089844 156.792969 C 126.972656 157.21875 126.910156 157.660156 126.910156 158.105469 C 126.910156 158.546875 126.96875 158.972656 127.078125 159.375 L 126.292969 160.164062 L 126.292969 163.222656 C 126.097656 163.109375 125.828125 162.960938 125.539062 162.839844 C 124.429688 162.378906 123.914062 162.6875 123.679688 163.03125 C 123.199219 163.726562 123.65625 164.328125 124.058594 164.859375 C 124.390625 165.300781 124.769531 165.800781 124.941406 166.53125 C 125.1875 167.558594 124.78125 168.816406 124.050781 171.09375 C 123.660156 172.300781 123.175781 173.808594 122.636719 175.734375 C 121 181.621094 121.296875 185.34375 121.421875 186.933594 L 121.429688 187.003906 C 121.660156 189.894531 122.15625 193.890625 123.832031 195.207031 C 124.207031 195.5 124.621094 195.648438 125.0625 195.648438 C 125.171875 195.648438 125.285156 195.640625 125.398438 195.621094 C 127.613281 195.265625 127.339844 193.089844 127.054688 190.785156 C 126.996094 190.3125 126.933594 189.816406 126.886719 189.316406 C 126.589844 186.023438 126.507812 182.277344 127.9375 177.210938 C 128.792969 174.167969 129.710938 171.328125 130.328125 169.480469 C 130.574219 168.746094 130.589844 167.972656 130.40625 167.25 L 131.3125 162.988281 C 131.476562 163.007812 131.648438 163.015625 131.816406 163.015625 C 131.988281 163.015625 132.15625 163.007812 132.324219 162.988281 L 133.230469 167.25 C 133.046875 167.972656 133.0625 168.746094 133.308594 169.480469 C 133.925781 171.328125 134.84375 174.171875 135.699219 177.210938 C 137.128906 182.277344 137.046875 186.023438 136.746094 189.316406 C 136.703125 189.816406 136.640625 190.3125 136.582031 190.785156 C 136.292969 193.089844 136.023438 195.265625 138.238281 195.621094 C 138.351562 195.640625 138.464844 195.648438 138.574219 195.648438 C 139.015625 195.648438 139.429688 195.5 139.804688 195.207031 C 141.476562 193.890625 141.976562 189.894531 142.207031 187.003906 L 142.210938 186.933594 C 142.339844 185.34375 142.636719 181.621094 140.996094 175.734375 Z M 136.550781 150.082031 L 136.550781 155.65625 L 136.234375 155.972656 C 135.492188 154.445312 133.988281 153.355469 132.21875 153.214844 L 132.21875 150.007812 C 133 149.824219 133.582031 149.125 133.582031 148.289062 L 133.582031 146.921875 C 133.582031 146.085938 133 145.386719 132.21875 145.203125 L 132.21875 139.542969 L 133.210938 139.542969 Z M 131.816406 145.957031 C 132.347656 145.957031 132.78125 146.390625 132.78125 146.921875 L 132.78125 148.289062 C 132.78125 148.820312 132.347656 149.253906 131.816406 149.253906 C 131.285156 149.253906 130.851562 148.820312 130.851562 148.289062 L 130.851562 146.921875 C 130.851562 146.390625 131.285156 145.957031 131.816406 145.957031 Z M 122.222656 186.871094 C 122.097656 185.324219 121.808594 181.699219 123.410156 175.949219 C 123.679688 174.976562 123.9375 174.113281 124.175781 173.339844 L 124.851562 173.703125 C 125.1875 173.886719 125.347656 174.285156 125.234375 174.652344 C 124.601562 176.671875 123.539062 180.617188 123.539062 184.335938 C 123.539062 187.363281 123.679688 189.191406 123.800781 190.191406 C 123.84375 190.542969 123.652344 190.878906 123.332031 191.019531 L 122.808594 191.253906 C 122.789062 191.160156 122.765625 191.070312 122.746094 190.972656 C 122.421875 189.398438 122.296875 187.800781 122.226562 186.941406 Z M 129.570312 169.226562 C 128.949219 171.082031 128.027344 173.933594 127.164062 176.992188 C 126.46875 179.464844 126.070312 181.824219 125.949219 184.210938 C 125.84375 186.242188 125.960938 187.96875 126.089844 189.386719 C 126.136719 189.90625 126.199219 190.402344 126.257812 190.886719 C 126.585938 193.523438 126.589844 194.617188 125.269531 194.828125 C 124.925781 194.886719 124.617188 194.800781 124.328125 194.574219 C 123.808594 194.167969 123.359375 193.300781 123.007812 192.042969 L 123.65625 191.753906 C 124.300781 191.464844 124.679688 190.800781 124.597656 190.097656 C 124.480469 189.117188 124.339844 187.324219 124.339844 184.335938 C 124.339844 180.589844 125.5 176.480469 126 174.890625 C 126.226562 174.160156 125.90625 173.367188 125.234375 173 L 124.421875 172.558594 C 124.558594 172.121094 124.691406 171.714844 124.8125 171.339844 C 125.589844 168.921875 126.019531 167.59375 125.722656 166.34375 C 125.507812 165.453125 125.039062 164.832031 124.695312 164.378906 C 124.257812 163.800781 124.210938 163.675781 124.339844 163.484375 C 124.378906 163.429688 124.453125 163.40625 124.558594 163.40625 C 124.917969 163.40625 125.597656 163.703125 126.132812 164.070312 L 128.367188 165.621094 C 129.519531 166.417969 130.011719 167.902344 129.570312 169.226562 Z M 129.851562 166.003906 C 129.582031 165.601562 129.238281 165.246094 128.824219 164.960938 L 127.09375 163.757812 L 127.09375 160.496094 L 127.382812 160.207031 C 127.992188 161.484375 129.136719 162.460938 130.523438 162.839844 Z M 133.027344 162.457031 C 132.984375 162.25 132.785156 162.109375 132.574219 162.144531 C 132.566406 162.144531 132.554688 162.148438 132.546875 162.148438 C 132.308594 162.191406 132.0625 162.214844 131.816406 162.214844 C 129.554688 162.214844 127.710938 160.371094 127.710938 158.105469 C 127.710938 157.671875 127.78125 157.246094 127.914062 156.835938 C 127.976562 156.6875 127.945312 156.511719 127.828125 156.394531 L 127.085938 155.65625 L 127.085938 150.082031 L 130.425781 139.542969 L 131.417969 139.542969 L 131.417969 145.203125 C 130.636719 145.386719 130.050781 146.085938 130.050781 146.921875 L 130.050781 148.289062 C 130.050781 149.125 130.636719 149.824219 131.417969 150.007812 L 131.417969 153.597656 C 131.417969 153.820312 131.597656 154 131.816406 154 C 134.082031 154 135.921875 155.839844 135.921875 158.105469 C 135.921875 158.53125 135.859375 158.949219 135.730469 159.351562 C 135.675781 159.496094 135.710938 159.664062 135.824219 159.777344 L 136.542969 160.496094 L 136.542969 163.757812 L 134.808594 164.960938 C 134.398438 165.246094 134.054688 165.601562 133.785156 166.003906 Z M 139.308594 194.574219 C 139.019531 194.800781 138.710938 194.886719 138.363281 194.828125 C 137.046875 194.617188 137.046875 193.523438 137.375 190.886719 C 137.4375 190.402344 137.5 189.90625 137.546875 189.386719 C 137.851562 186.019531 137.933594 182.183594 136.46875 176.992188 C 135.609375 173.9375 134.6875 171.082031 134.066406 169.226562 C 133.621094 167.902344 134.117188 166.417969 135.265625 165.621094 L 137.503906 164.070312 C 138.191406 163.59375 139.125 163.238281 139.296875 163.484375 C 139.425781 163.675781 139.375 163.800781 138.9375 164.378906 C 138.597656 164.832031 138.125 165.453125 137.914062 166.34375 C 137.617188 167.59375 138.046875 168.921875 138.824219 171.339844 C 138.945312 171.714844 139.074219 172.121094 139.214844 172.558594 L 138.402344 173 C 137.730469 173.367188 137.40625 174.160156 137.636719 174.890625 C 138.136719 176.480469 139.296875 180.589844 139.296875 184.335938 C 139.296875 187.324219 139.15625 189.117188 139.039062 190.097656 C 138.957031 190.800781 139.332031 191.464844 139.980469 191.753906 L 140.632812 192.042969 C 140.328125 193.148438 139.902344 194.109375 139.308594 194.574219 Z M 141.414062 186.871094 L 141.410156 186.941406 C 141.339844 187.792969 141.195312 189.585938 140.828125 191.253906 L 140.304688 191.019531 C 139.980469 190.878906 139.792969 190.542969 139.835938 190.191406 C 139.953125 189.191406 140.097656 187.363281 140.097656 184.335938 C 140.097656 180.617188 139.035156 176.671875 138.402344 174.652344 C 138.285156 174.285156 138.445312 173.886719 138.78125 173.707031 L 139.457031 173.339844 C 139.695312 174.113281 139.953125 174.976562 140.226562 175.949219 C 141.828125 181.699219 141.539062 185.324219 141.414062 186.871094 Z M 141.414062 186.871094 " fill-opacity="1" fill-rule="nonzero"/></g><path fill="#000000" d="M 131.816406 155.535156 C 130.402344 155.535156 129.246094 156.6875 129.246094 158.105469 C 129.246094 159.523438 130.402344 160.679688 131.816406 160.679688 C 133.234375 160.679688 134.386719 159.523438 134.386719 158.105469 C 134.386719 156.6875 133.234375 155.535156 131.816406 155.535156 Z M 131.816406 159.878906 C 130.84375 159.878906 130.046875 159.082031 130.046875 158.105469 C 130.046875 157.128906 130.84375 156.335938 131.816406 156.335938 C 132.792969 156.335938 133.585938 157.128906 133.585938 158.105469 C 133.585938 159.082031 132.792969 159.878906 131.816406 159.878906 Z M 131.816406 159.878906 " fill-opacity="1" fill-rule="nonzero"/><g clip-path="url(#12c6b39a31)"><path fill="#000000" d="M 246.746094 175.734375 C 246.210938 173.808594 245.726562 172.300781 245.335938 171.09375 C 244.601562 168.816406 244.199219 167.558594 244.441406 166.53125 C 244.617188 165.800781 244.996094 165.300781 245.328125 164.859375 C 245.730469 164.328125 246.183594 163.726562 245.703125 163.03125 C 245.46875 162.6875 244.957031 162.378906 243.847656 162.839844 C 243.554688 162.960938 243.285156 163.109375 243.09375 163.222656 L 243.09375 160.332031 C 243.09375 160.222656 243.050781 160.121094 242.976562 160.046875 L 242.308594 159.378906 C 242.417969 158.964844 242.472656 158.539062 242.472656 158.105469 C 242.472656 157.652344 242.410156 157.210938 242.292969 156.792969 L 242.980469 156.105469 C 243.058594 156.027344 243.097656 155.925781 243.097656 155.820312 L 243.097656 150.019531 C 243.097656 149.980469 243.09375 149.9375 243.082031 149.898438 L 239.632812 139.019531 C 239.582031 138.855469 239.425781 138.742188 239.25 138.742188 L 235.882812 138.742188 C 235.707031 138.742188 235.554688 138.855469 235.5 139.019531 L 232.054688 149.898438 C 232.039062 149.9375 232.035156 149.980469 232.035156 150.019531 L 232.035156 155.820312 C 232.035156 155.925781 232.078125 156.027344 232.152344 156.105469 L 232.839844 156.792969 C 232.71875 157.21875 232.660156 157.660156 232.660156 158.105469 C 232.660156 158.546875 232.71875 158.972656 232.828125 159.375 L 232.039062 160.164062 L 232.039062 163.222656 C 231.847656 163.109375 231.578125 162.960938 231.289062 162.839844 C 230.179688 162.378906 229.664062 162.6875 229.429688 163.03125 C 228.949219 163.726562 229.40625 164.328125 229.804688 164.859375 C 230.140625 165.300781 230.519531 165.800781 230.691406 166.53125 C 230.9375 167.558594 230.53125 168.816406 229.796875 171.09375 C 229.410156 172.300781 228.925781 173.808594 228.386719 175.734375 C 226.75 181.621094 227.046875 185.34375 227.171875 186.933594 L 227.175781 187.003906 C 227.40625 189.894531 227.90625 193.890625 229.582031 195.207031 C 229.957031 195.5 230.367188 195.648438 230.8125 195.648438 C 230.921875 195.648438 231.035156 195.640625 231.148438 195.621094 C 233.359375 195.265625 233.089844 193.089844 232.804688 190.785156 C 232.746094 190.3125 232.683594 189.816406 232.636719 189.316406 C 232.335938 186.023438 232.257812 182.277344 233.683594 177.210938 C 234.542969 174.167969 235.460938 171.328125 236.078125 169.480469 C 236.324219 168.746094 236.339844 167.972656 236.15625 167.25 L 237.0625 162.988281 C 237.226562 163.007812 237.394531 163.015625 237.566406 163.015625 C 237.734375 163.015625 237.90625 163.007812 238.074219 162.988281 L 238.976562 167.25 C 238.792969 167.972656 238.808594 168.746094 239.058594 169.480469 C 239.675781 171.328125 240.589844 174.171875 241.449219 177.210938 C 242.878906 182.277344 242.796875 186.023438 242.496094 189.316406 C 242.449219 189.816406 242.390625 190.3125 242.332031 190.785156 C 242.042969 193.089844 241.773438 195.265625 243.988281 195.621094 C 244.101562 195.640625 244.210938 195.648438 244.320312 195.648438 C 244.765625 195.648438 245.175781 195.5 245.550781 195.207031 C 247.226562 193.890625 247.726562 189.894531 247.957031 187.003906 L 247.960938 186.933594 C 248.089844 185.34375 248.386719 181.621094 246.746094 175.734375 Z M 242.296875 150.082031 L 242.296875 155.65625 L 241.984375 155.972656 C 241.242188 154.445312 239.738281 153.355469 237.96875 153.214844 L 237.96875 150.007812 C 238.75 149.824219 239.332031 149.125 239.332031 148.289062 L 239.332031 146.921875 C 239.332031 146.085938 238.75 145.386719 237.96875 145.203125 L 237.96875 139.542969 L 238.957031 139.542969 Z M 237.566406 145.957031 C 238.097656 145.957031 238.53125 146.390625 238.53125 146.921875 L 238.53125 148.289062 C 238.53125 148.820312 238.097656 149.253906 237.566406 149.253906 C 237.035156 149.253906 236.601562 148.820312 236.601562 148.289062 L 236.601562 146.921875 C 236.601562 146.390625 237.035156 145.957031 237.566406 145.957031 Z M 227.972656 186.871094 C 227.847656 185.324219 227.558594 181.699219 229.160156 175.949219 C 229.429688 174.976562 229.6875 174.113281 229.925781 173.339844 L 230.601562 173.703125 C 230.9375 173.886719 231.097656 174.285156 230.984375 174.652344 C 230.351562 176.671875 229.289062 180.617188 229.289062 184.335938 C 229.289062 187.363281 229.429688 189.191406 229.550781 190.191406 C 229.589844 190.542969 229.402344 190.878906 229.078125 191.019531 L 228.558594 191.253906 C 228.535156 191.160156 228.515625 191.070312 228.496094 190.972656 C 228.171875 189.398438 228.042969 187.800781 227.976562 186.941406 Z M 235.316406 169.226562 C 234.695312 171.082031 233.777344 173.933594 232.914062 176.992188 C 232.21875 179.464844 231.820312 181.824219 231.695312 184.210938 C 231.59375 186.242188 231.710938 187.96875 231.839844 189.386719 C 231.886719 189.90625 231.949219 190.402344 232.007812 190.886719 C 232.335938 193.523438 232.339844 194.617188 231.019531 194.828125 C 230.671875 194.886719 230.363281 194.800781 230.078125 194.574219 C 229.558594 194.167969 229.109375 193.300781 228.753906 192.042969 L 229.40625 191.753906 C 230.050781 191.464844 230.429688 190.800781 230.34375 190.097656 C 230.230469 189.117188 230.089844 187.324219 230.089844 184.335938 C 230.089844 180.589844 231.25 176.480469 231.746094 174.890625 C 231.976562 174.160156 231.65625 173.367188 230.984375 173 L 230.171875 172.558594 C 230.308594 172.121094 230.4375 171.714844 230.558594 171.339844 C 231.339844 168.921875 231.765625 167.59375 231.46875 166.34375 C 231.257812 165.453125 230.789062 164.832031 230.445312 164.378906 C 230.007812 163.800781 229.957031 163.675781 230.089844 163.484375 C 230.128906 163.429688 230.203125 163.40625 230.308594 163.40625 C 230.664062 163.40625 231.347656 163.703125 231.882812 164.070312 L 234.117188 165.621094 C 235.269531 166.417969 235.761719 167.902344 235.316406 169.226562 Z M 235.601562 166.003906 C 235.332031 165.601562 234.988281 165.246094 234.574219 164.960938 L 232.839844 163.757812 L 232.839844 160.496094 L 233.132812 160.207031 C 233.738281 161.484375 234.886719 162.460938 236.273438 162.839844 Z M 238.777344 162.457031 C 238.734375 162.25 238.535156 162.109375 238.324219 162.144531 C 238.316406 162.144531 238.304688 162.148438 238.296875 162.148438 C 238.054688 162.191406 237.8125 162.214844 237.566406 162.214844 C 235.304688 162.214844 233.460938 160.371094 233.460938 158.105469 C 233.460938 157.671875 233.527344 157.246094 233.660156 156.835938 C 233.726562 156.6875 233.691406 156.511719 233.578125 156.394531 L 232.835938 155.65625 L 232.835938 150.082031 L 236.175781 139.542969 L 237.167969 139.542969 L 237.167969 145.203125 C 236.386719 145.386719 235.800781 146.085938 235.800781 146.921875 L 235.800781 148.289062 C 235.800781 149.125 236.386719 149.824219 237.167969 150.007812 L 237.167969 153.597656 C 237.167969 153.820312 237.347656 154 237.566406 154 C 239.832031 154 241.671875 155.839844 241.671875 158.105469 C 241.671875 158.53125 241.609375 158.949219 241.480469 159.351562 C 241.425781 159.496094 241.460938 159.664062 241.570312 159.777344 L 242.292969 160.496094 L 242.292969 163.757812 L 240.558594 164.960938 C 240.148438 165.246094 239.800781 165.601562 239.53125 166.003906 Z M 245.058594 194.574219 C 244.769531 194.800781 244.460938 194.886719 244.113281 194.828125 C 242.792969 194.617188 242.796875 193.523438 243.125 190.886719 C 243.183594 190.402344 243.246094 189.90625 243.292969 189.386719 C 243.601562 186.019531 243.683594 182.183594 242.21875 176.992188 C 241.359375 173.9375 240.4375 171.082031 239.816406 169.226562 C 239.371094 167.902344 239.867188 166.417969 241.015625 165.621094 L 243.25 164.070312 C 243.941406 163.59375 244.875 163.238281 245.042969 163.484375 C 245.175781 163.675781 245.125 163.800781 244.6875 164.378906 C 244.34375 164.832031 243.875 165.453125 243.664062 166.34375 C 243.367188 167.59375 243.796875 168.921875 244.574219 171.339844 C 244.695312 171.714844 244.824219 172.121094 244.964844 172.558594 L 244.148438 173 C 243.476562 173.367188 243.15625 174.160156 243.386719 174.890625 C 243.882812 176.480469 245.042969 180.589844 245.042969 184.335938 C 245.042969 187.324219 244.90625 189.117188 244.789062 190.097656 C 244.703125 190.800781 245.082031 191.464844 245.730469 191.753906 L 246.382812 192.042969 C 246.078125 193.148438 245.652344 194.109375 245.058594 194.574219 Z M 247.164062 186.871094 L 247.15625 186.941406 C 247.089844 187.792969 246.945312 189.585938 246.578125 191.253906 L 246.054688 191.019531 C 245.730469 190.878906 245.542969 190.542969 245.585938 190.191406 C 245.703125 189.191406 245.84375 187.363281 245.84375 184.335938 C 245.84375 180.617188 244.785156 176.671875 244.152344 174.652344 C 244.035156 174.285156 244.195312 173.886719 244.53125 173.707031 L 245.207031 173.339844 C 245.445312 174.113281 245.703125 174.976562 245.972656 175.949219 C 247.574219 181.699219 247.285156 185.324219 247.164062 186.871094 Z M 247.164062 186.871094 " fill-opacity="1" fill-rule="nonzero"/></g><path fill="#000000" d="M 237.566406 155.535156 C 236.148438 155.535156 234.996094 156.6875 234.996094 158.105469 C 234.996094 159.523438 236.148438 160.679688 237.566406 160.679688 C 238.984375 160.679688 240.136719 159.523438 240.136719 158.105469 C 240.136719 156.6875 238.984375 155.535156 237.566406 155.535156 Z M 237.566406 159.878906 C 236.589844 159.878906 235.796875 159.082031 235.796875 158.105469 C 235.796875 157.128906 236.589844 156.335938 237.566406 156.335938 C 238.542969 156.335938 239.335938 157.128906 239.335938 158.105469 C 239.335938 159.082031 238.542969 159.878906 237.566406 159.878906 Z M 237.566406 159.878906 " fill-opacity="1" fill-rule="nonzero"/><g fill="#4d4d4d" fill-opacity="1"><g transform="translate(100.847239, 169.543108)"><g><path d="M 0.03125 -0.4375 L -1.359375 -0.546875 L -1.484375 -1.796875 L -9.75 -2.46875 L -10.109375 -1.25 L -11.5 -1.375 L -11.390625 -2.609375 L -11.203125 -4.921875 L -11.109375 -6.15625 L -9.71875 -6.03125 L -9.5625 -4.78125 L -1.453125 -4.125 L -1.203125 -7.375 L -2.625 -7.609375 L -2.484375 -9.375 L 0.734375 -9.109375 Z M 0.03125 -0.4375 "/></g></g></g><g fill="#4d4d4d" fill-opacity="1"><g transform="translate(102.760891, 153.105344)"><g><path d="M -2.484375 -12.15625 C -0.859375 -11.695312 0.351562 -10.847656 1.15625 -9.609375 C 1.96875 -8.378906 2.160156 -7.007812 1.734375 -5.5 C 1.304688 -4 0.429688 -2.9375 -0.890625 -2.3125 C -2.222656 -1.6875 -3.703125 -1.601562 -5.328125 -2.0625 L -5.515625 -2.109375 C -7.128906 -2.566406 -8.34375 -3.40625 -9.15625 -4.625 C -9.96875 -5.851562 -10.160156 -7.21875 -9.734375 -8.71875 C -9.316406 -10.226562 -8.4375 -11.300781 -7.09375 -11.9375 C -5.757812 -12.570312 -4.285156 -12.660156 -2.671875 -12.203125 Z M -3.3125 -9.96875 C -4.46875 -10.289062 -5.46875 -10.316406 -6.3125 -10.046875 C -7.164062 -9.773438 -7.722656 -9.164062 -7.984375 -8.21875 C -8.253906 -7.28125 -8.097656 -6.476562 -7.515625 -5.8125 C -6.941406 -5.15625 -6.070312 -4.660156 -4.90625 -4.328125 L -4.703125 -4.28125 C -3.546875 -3.945312 -2.539062 -3.910156 -1.6875 -4.171875 C -0.832031 -4.441406 -0.273438 -5.046875 -0.015625 -5.984375 C 0.242188 -6.929688 0.0820312 -7.738281 -0.5 -8.40625 C -1.082031 -9.082031 -1.953125 -9.585938 -3.109375 -9.921875 Z M -3.3125 -9.96875 "/></g></g></g><g fill="#4d4d4d" fill-opacity="1"><g transform="translate(108.479231, 135.535114)"><g><path d="M -2.296875 -12.328125 L -3.09375 -10.796875 L -4.5625 -11.28125 C -4.875 -11.175781 -5.164062 -11 -5.4375 -10.75 C -5.707031 -10.507812 -5.953125 -10.179688 -6.171875 -9.765625 C -6.628906 -8.859375 -6.65625 -8 -6.25 -7.1875 C -5.84375 -6.375 -5.117188 -5.703125 -4.078125 -5.171875 L -3.71875 -4.984375 C -2.664062 -4.441406 -1.691406 -4.242188 -0.796875 -4.390625 C 0.0976562 -4.535156 0.769531 -5.046875 1.21875 -5.921875 C 1.425781 -6.328125 1.554688 -6.726562 1.609375 -7.125 C 1.660156 -7.519531 1.640625 -7.859375 1.546875 -8.140625 L 0.265625 -9.078125 L 1.0625 -10.609375 L 3.09375 -9.5625 C 3.363281 -8.894531 3.476562 -8.164062 3.4375 -7.375 C 3.394531 -6.582031 3.164062 -5.789062 2.75 -5 C 2.050781 -3.625 1 -2.738281 -0.40625 -2.34375 C -1.820312 -1.945312 -3.28125 -2.132812 -4.78125 -2.90625 L -5.125 -3.078125 C -6.613281 -3.847656 -7.613281 -4.914062 -8.125 -6.28125 C -8.644531 -7.65625 -8.550781 -9.035156 -7.84375 -10.421875 C -7.425781 -11.210938 -6.90625 -11.859375 -6.28125 -12.359375 C -5.664062 -12.859375 -5.015625 -13.191406 -4.328125 -13.359375 Z M -2.296875 -12.328125 "/></g></g></g><g fill="#4d4d4d" fill-opacity="1"><g transform="translate(117.036013, 120.247082)"><g><path d="M -0.828125 -1.203125 L -0.21875 -2.328125 L -6.703125 -7.5 L -7.6875 -6.6875 L -8.78125 -7.546875 L -5.828125 -11.25 L -4.734375 -10.390625 L -5.25 -9.3125 L -2.84375 -7.390625 L -2.21875 -8.171875 L -3.359375 -11.9375 L -3.875 -11.46875 L -4.96875 -12.328125 L -2.109375 -15.90625 L -1.015625 -15.046875 L -1.625 -13.921875 L -0.421875 -9.34375 L 5.125 -8.984375 L 6 -9.75 L 7.09375 -8.890625 L 4.234375 -5.3125 L 3.140625 -6.171875 L 3.53125 -6.796875 L -0.484375 -7.15625 L -1.28125 -6.140625 L 1.234375 -4.140625 L 2.125 -4.90625 L 3.21875 -4.046875 L 0.265625 -0.34375 Z M -0.828125 -1.203125 "/></g></g></g><g fill="#4d4d4d" fill-opacity="1"><g transform="translate(129.238708, 106.182964)"><g><path d="M 1.984375 -11.96875 L 0.640625 -10.84375 L -0.609375 -11.859375 C -0.847656 -11.835938 -1.144531 -11.734375 -1.5 -11.546875 C -1.851562 -11.367188 -2.195312 -11.144531 -2.53125 -10.875 C -3.007812 -10.457031 -3.296875 -10.035156 -3.390625 -9.609375 C -3.484375 -9.179688 -3.394531 -8.804688 -3.125 -8.484375 C -2.863281 -8.179688 -2.515625 -8.050781 -2.078125 -8.09375 C -1.648438 -8.132812 -1.003906 -8.332031 -0.140625 -8.6875 C 1.066406 -9.238281 2.109375 -9.503906 2.984375 -9.484375 C 3.859375 -9.472656 4.601562 -9.101562 5.21875 -8.375 C 5.851562 -7.625 6.054688 -6.773438 5.828125 -5.828125 C 5.609375 -4.890625 5.007812 -4.007812 4.03125 -3.1875 C 3.320312 -2.59375 2.59375 -2.164062 1.84375 -1.90625 C 1.09375 -1.644531 0.363281 -1.5625 -0.34375 -1.65625 L -1.90625 -3.484375 L -0.53125 -4.640625 L 0.703125 -3.546875 C 1.015625 -3.554688 1.363281 -3.640625 1.75 -3.796875 C 2.132812 -3.960938 2.515625 -4.207031 2.890625 -4.53125 C 3.367188 -4.9375 3.648438 -5.34375 3.734375 -5.75 C 3.828125 -6.15625 3.726562 -6.523438 3.4375 -6.859375 C 3.15625 -7.203125 2.804688 -7.375 2.390625 -7.375 C 1.972656 -7.382812 1.382812 -7.226562 0.625 -6.90625 C -0.664062 -6.320312 -1.753906 -6.007812 -2.640625 -5.96875 C -3.535156 -5.925781 -4.289062 -6.269531 -4.90625 -7 C -5.507812 -7.707031 -5.695312 -8.546875 -5.46875 -9.515625 C -5.25 -10.484375 -4.6875 -11.363281 -3.78125 -12.15625 C -3.09375 -12.726562 -2.378906 -13.144531 -1.640625 -13.40625 C -0.910156 -13.664062 -0.210938 -13.785156 0.453125 -13.765625 Z M 1.984375 -11.96875 "/></g></g></g><g fill="#4d4d4d" fill-opacity="1"><g transform="translate(142.342569, 95.70789)"><g><path d="M 6.28125 -12.984375 L 6.21875 -12.984375 L 7.46875 -3.953125 L 6.109375 -3.21875 L -0.609375 -9.328125 L -0.65625 -9.296875 L 1.921875 -4.921875 L 2.765625 -3.3125 L 3.96875 -3.671875 L 4.625 -2.4375 L 0.390625 -0.203125 L -0.265625 -1.4375 L 0.71875 -2.21875 L -3.15625 -9.546875 L -4.359375 -9.203125 L -5.015625 -10.421875 L -3.921875 -11 L -1.25 -12.421875 L 5.328125 -6.25 L 5.390625 -6.28125 L 4.03125 -15.203125 L 7.796875 -17.1875 L 8.453125 -15.96875 L 7.46875 -15.171875 L 11.34375 -7.84375 L 12.546875 -8.203125 L 13.203125 -6.96875 L 8.984375 -4.75 L 8.328125 -5.984375 L 9.296875 -6.75 L 8.453125 -8.359375 Z M 6.28125 -12.984375 "/></g></g></g><g fill="#4d4d4d" fill-opacity="1"><g transform="translate(162.572625, 86.316926)"><g><path d="M -2.515625 -9.859375 L -2.90625 -11.203125 L 1.671875 -12.578125 L 2.0625 -11.234375 L 0.953125 -10.640625 L 3.34375 -2.703125 L 4.59375 -2.828125 L 5 -1.5 L 0.421875 -0.125 L 0.015625 -1.453125 L 1.125 -2.046875 L -1.265625 -9.984375 Z M -2.515625 -9.859375 "/></g></g></g><g fill="#4d4d4d" fill-opacity="1"><g transform="translate(174.95359, 82.993243)"><g><path d="M 9.140625 -12.765625 L 9.515625 -9.703125 L 7.75 -9.5 L 7.5 -10.765625 L 5.390625 -10.5 L 6.375 -2.40625 L 7.625 -2.328125 L 7.796875 -0.953125 L 3.046875 -0.375 L 2.875 -1.75 L 4.0625 -2.125 L 3.078125 -10.21875 L 0.984375 -9.96875 L 1.046875 -8.671875 L -0.71875 -8.453125 L -1.09375 -11.515625 Z M 9.140625 -12.765625 "/></g></g></g><g fill="#4d4d4d" fill-opacity="1"><g transform="translate(192.764249, 81.451808)"><g><path d="M 1.3125 -10.109375 L 1.4375 -11.484375 L 6.21875 -11.0625 L 6.09375 -9.6875 L 4.84375 -9.546875 L 4.546875 -6.21875 L 9.25 -5.8125 L 9.546875 -9.140625 L 8.3125 -9.5 L 8.4375 -10.875 L 9.6875 -10.765625 L 11.984375 -10.5625 L 13.21875 -10.46875 L 13.09375 -9.09375 L 11.84375 -8.9375 L 11.125 -0.671875 L 12.34375 -0.34375 L 12.21875 1.046875 L 7.4375 0.640625 L 7.5625 -0.75 L 8.828125 -0.875 L 9.09375 -4.046875 L 4.390625 -4.453125 L 4.125 -1.28125 L 5.34375 -0.9375 L 5.21875 0.453125 L 0.4375 0.03125 L 0.5625 -1.359375 L 1.8125 -1.484375 L 2.53125 -9.75 Z M 1.3125 -10.109375 "/></g></g></g><g fill="#4d4d4d" fill-opacity="1"><g transform="translate(212.264793, 83.97221)"><g><path d="M 1.234375 -2.875 C 1.410156 -3.46875 1.726562 -3.9375 2.1875 -4.28125 C 2.644531 -4.625 3.28125 -4.925781 4.09375 -5.1875 C 3.894531 -5.757812 3.765625 -6.265625 3.703125 -6.703125 C 3.640625 -7.140625 3.671875 -7.5625 3.796875 -7.96875 C 4.054688 -8.84375 4.539062 -9.460938 5.25 -9.828125 C 5.957031 -10.191406 6.769531 -10.234375 7.6875 -9.953125 C 8.5 -9.710938 9.082031 -9.265625 9.4375 -8.609375 C 9.789062 -7.960938 9.859375 -7.28125 9.640625 -6.5625 C 9.492188 -6.070312 9.234375 -5.65625 8.859375 -5.3125 C 8.492188 -4.976562 8.050781 -4.722656 7.53125 -4.546875 L 6.65625 -4.265625 L 8.03125 -1.171875 C 8.3125 -1.429688 8.554688 -1.722656 8.765625 -2.046875 C 8.972656 -2.378906 9.132812 -2.738281 9.25 -3.125 L 10.90625 -2.625 C 10.695312 -1.925781 10.421875 -1.304688 10.078125 -0.765625 C 9.734375 -0.234375 9.3125 0.203125 8.8125 0.546875 L 9.859375 2.875 L 9.828125 2.921875 L 7.359375 2.1875 L 6.96875 1.34375 C 6.457031 1.5 5.953125 1.578125 5.453125 1.578125 C 4.953125 1.578125 4.441406 1.503906 3.921875 1.359375 C 2.816406 1.023438 2.019531 0.46875 1.53125 -0.3125 C 1.050781 -1.09375 0.953125 -1.945312 1.234375 -2.875 Z M 4.53125 -0.328125 C 4.800781 -0.253906 5.078125 -0.207031 5.359375 -0.1875 C 5.648438 -0.175781 5.941406 -0.207031 6.234375 -0.28125 L 4.765625 -3.609375 L 4.578125 -3.53125 C 4.242188 -3.375 3.992188 -3.191406 3.828125 -2.984375 C 3.671875 -2.773438 3.554688 -2.554688 3.484375 -2.328125 C 3.347656 -1.878906 3.375 -1.46875 3.5625 -1.09375 C 3.757812 -0.71875 4.082031 -0.460938 4.53125 -0.328125 Z M 5.796875 -7.390625 C 5.734375 -7.171875 5.71875 -6.929688 5.75 -6.671875 C 5.789062 -6.410156 5.878906 -6.109375 6.015625 -5.765625 L 6.796875 -6 C 7.128906 -6.09375 7.375 -6.21875 7.53125 -6.375 C 7.6875 -6.53125 7.800781 -6.722656 7.875 -6.953125 C 7.945312 -7.210938 7.921875 -7.46875 7.796875 -7.71875 C 7.671875 -7.976562 7.457031 -8.15625 7.15625 -8.25 C 6.820312 -8.34375 6.535156 -8.300781 6.296875 -8.125 C 6.066406 -7.957031 5.898438 -7.710938 5.796875 -7.390625 Z M 5.796875 -7.390625 "/></g></g></g><g fill="#4d4d4d" fill-opacity="1"><g transform="translate(228.520847, 89.490053)"><g><path d="M 9.484375 3.515625 C 8.984375 3.660156 8.34375 3.703125 7.5625 3.640625 C 6.789062 3.578125 5.914062 3.289062 4.9375 2.78125 C 3.550781 2.050781 2.664062 1 2.28125 -0.375 C 1.894531 -1.757812 2.09375 -3.195312 2.875 -4.6875 L 3.046875 -5.03125 C 3.847656 -6.5625 4.925781 -7.582031 6.28125 -8.09375 C 7.644531 -8.613281 9.019531 -8.507812 10.40625 -7.78125 C 11.207031 -7.363281 11.875 -6.851562 12.40625 -6.25 C 12.9375 -5.644531 13.304688 -5.007812 13.515625 -4.34375 L 12.4375 -2.28125 L 10.9375 -3.078125 L 11.34375 -4.609375 C 11.25 -4.878906 11.070312 -5.132812 10.8125 -5.375 C 10.550781 -5.625 10.222656 -5.851562 9.828125 -6.0625 C 8.929688 -6.53125 8.0625 -6.566406 7.21875 -6.171875 C 6.375 -5.773438 5.671875 -5.039062 5.109375 -3.96875 L 4.921875 -3.609375 C 4.367188 -2.566406 4.175781 -1.601562 4.34375 -0.71875 C 4.507812 0.15625 5.050781 0.832031 5.96875 1.3125 C 6.382812 1.53125 6.738281 1.664062 7.03125 1.71875 C 7.320312 1.78125 7.566406 1.804688 7.765625 1.796875 L 8.671875 0.0625 L 7.265625 -0.8125 L 8.015625 -2.25 L 11.546875 -0.40625 Z M 9.484375 3.515625 "/></g></g></g><g fill="#4d4d4d" fill-opacity="1"><g transform="translate(243.901911, 98.28541)"><g><path d="M 1.125 -0.875 L 1.84375 -0.4375 L 10.921875 -6.015625 L 12.765625 -4.515625 L 9.125 5.484375 L 9.6875 6.09375 L 8.8125 7.171875 L 5.75 4.6875 L 6.625 3.609375 L 7.359375 4.015625 L 7.953125 2.453125 L 5.046875 0.078125 L 3.65625 1 L 4.1875 1.609375 L 3.3125 2.6875 L 0.25 0.203125 Z M 6.546875 -0.890625 L 8.609375 0.78125 L 10.1875 -3.203125 L 10.140625 -3.21875 Z M 6.546875 -0.890625 "/></g></g></g><g fill="#4d4d4d" fill-opacity="1"><g transform="translate(257.879491, 110.612413)"><g><path d="M 12.53125 -2.9375 C 13.363281 -1.925781 13.78125 -0.941406 13.78125 0.015625 C 13.78125 0.972656 13.367188 1.789062 12.546875 2.46875 C 12.097656 2.832031 11.609375 3.03125 11.078125 3.0625 C 10.546875 3.09375 9.984375 2.957031 9.390625 2.65625 C 9.679688 3.3125 9.738281 3.898438 9.5625 4.421875 C 9.382812 4.953125 9.023438 5.4375 8.484375 5.875 L 8.03125 6.25 C 7.832031 6.414062 7.710938 6.582031 7.671875 6.75 C 7.640625 6.914062 7.679688 7.097656 7.796875 7.296875 L 7.9375 7.546875 L 6.859375 8.421875 L 6.109375 7.5 C 5.628906 6.90625 5.445312 6.359375 5.5625 5.859375 C 5.6875 5.367188 6.003906 4.921875 6.515625 4.515625 L 7.015625 4.09375 C 7.453125 3.738281 7.703125 3.34375 7.765625 2.90625 C 7.828125 2.476562 7.6875 2.046875 7.34375 1.609375 L 6.15625 0.140625 L 3.796875 2.0625 L 4.390625 3.1875 L 3.3125 4.0625 L 0.28125 0.34375 L 1.359375 -0.53125 L 2.328125 0.265625 L 8.75 -4.96875 L 8.171875 -6.078125 L 9.25 -6.96875 L 10.03125 -6.015625 Z M 7.546875 -1 L 8.546875 0.234375 C 8.953125 0.742188 9.363281 1.035156 9.78125 1.109375 C 10.207031 1.191406 10.617188 1.070312 11.015625 0.75 C 11.421875 0.414062 11.640625 0.0234375 11.671875 -0.421875 C 11.710938 -0.867188 11.535156 -1.332031 11.140625 -1.8125 L 10.109375 -3.09375 Z M 7.546875 -1 "/></g></g></g><g fill="#4d4d4d" fill-opacity="1"><g transform="translate(268.801972, 125.098984)"><g><path d="M 1.390625 -0.34375 L 1.875 0.328125 L 12.40625 -1.203125 L 13.5 0.90625 L 6.21875 8.65625 L 6.484375 9.4375 L 5.25 10.078125 L 3.4375 6.578125 L 4.671875 5.9375 L 5.171875 6.59375 L 6.328125 5.40625 L 4.59375 2.078125 L 2.96875 2.375 L 3.203125 3.140625 L 1.96875 3.78125 L 0.15625 0.296875 Z M 6.375 1.765625 L 7.59375 4.125 L 10.609375 1.09375 L 10.578125 1.0625 Z M 6.375 1.765625 "/></g></g></g><g fill="#4d4d4d" fill-opacity="1"><g transform="translate(276.751234, 141.968878)"><g><path d="M 4 9.28125 C 3.539062 9.019531 3.066406 8.585938 2.578125 7.984375 C 2.085938 7.378906 1.691406 6.546875 1.390625 5.484375 C 0.953125 3.984375 1.101562 2.617188 1.84375 1.390625 C 2.59375 0.160156 3.769531 -0.6875 5.375 -1.15625 L 5.75 -1.265625 C 7.414062 -1.734375 8.90625 -1.65625 10.21875 -1.03125 C 11.53125 -0.40625 12.398438 0.65625 12.828125 2.15625 C 13.078125 3.03125 13.164062 3.863281 13.09375 4.65625 C 13.019531 5.457031 12.816406 6.160156 12.484375 6.765625 L 10.25 7.40625 L 9.78125 5.78125 L 11.171875 5.03125 C 11.285156 4.769531 11.34375 4.460938 11.34375 4.109375 C 11.351562 3.753906 11.296875 3.359375 11.171875 2.921875 C 10.890625 1.953125 10.3125 1.296875 9.4375 0.953125 C 8.570312 0.617188 7.554688 0.617188 6.390625 0.953125 L 6 1.0625 C 4.875 1.382812 4.050781 1.910156 3.53125 2.640625 C 3.007812 3.367188 2.890625 4.226562 3.171875 5.21875 C 3.296875 5.675781 3.4375 6.023438 3.59375 6.265625 C 3.75 6.515625 3.90625 6.707031 4.0625 6.84375 L 5.9375 6.3125 L 5.609375 4.6875 L 7.171875 4.234375 L 8.265625 8.0625 Z M 4 9.28125 "/></g></g></g><g fill="#4d4d4d" fill-opacity="1"><g transform="translate(280.974513, 159.20963)"><g><path d="M 5.734375 7.4375 L 5.40625 3.546875 L 2.125 3.828125 L 2.4375 7.546875 L 3.8125 7.53125 L 3.953125 9.296875 L 0.8125 9.5625 L 0.03125 0.4375 L 1.421875 0.3125 L 1.765625 1.53125 L 10.03125 0.828125 L 10.171875 -0.421875 L 11.546875 -0.546875 L 11.65625 0.6875 L 12.328125 8.5625 L 9.171875 8.828125 L 9.015625 7.046875 L 10.40625 6.84375 L 10.09375 3.15625 L 7.1875 3.40625 L 7.515625 7.296875 Z M 5.734375 7.4375 "/></g></g></g><g fill="#4d4d4d" fill-opacity="1"><g transform="translate(99.439445, 244.307914)"><g><path d="M 1.875 -0.59375 L 1.875 -29.359375 C 1.875 -29.765625 2.070312 -29.96875 2.46875 -29.96875 L 11.453125 -29.96875 C 13.234375 -29.96875 14.578125 -29.507812 15.484375 -28.59375 C 16.398438 -27.6875 16.859375 -26.34375 16.859375 -24.5625 L 16.859375 -15.4375 C 16.859375 -13.6875 16.398438 -12.347656 15.484375 -11.421875 C 14.578125 -10.492188 13.234375 -10.03125 11.453125 -10.03125 L 6.96875 -10.03125 L 6.96875 -0.59375 C 6.96875 -0.195312 6.765625 0 6.359375 0 L 2.46875 0 C 2.070312 0 1.875 -0.195312 1.875 -0.59375 Z M 6.96875 -14.984375 L 10.265625 -14.984375 C 11.265625 -14.984375 11.765625 -15.484375 11.765625 -16.484375 L 11.765625 -23.515625 C 11.765625 -24.515625 11.265625 -25.015625 10.265625 -25.015625 L 6.96875 -25.015625 Z M 6.96875 -14.984375 "/></g></g></g><g fill="#4d4d4d" fill-opacity="1"><g transform="translate(125.687395, 244.307914)"><g><path d="M 17.265625 -24.5625 L 17.265625 -15.4375 C 17.265625 -12.9375 16.351562 -11.285156 14.53125 -10.484375 L 17.109375 -0.671875 C 17.234375 -0.222656 17.0625 0 16.59375 0 L 12.703125 0 C 12.347656 0 12.132812 -0.175781 12.0625 -0.53125 L 9.546875 -10.03125 L 6.96875 -10.03125 L 6.96875 -0.59375 C 6.96875 -0.195312 6.765625 0 6.359375 0 L 2.46875 0 C 2.070312 0 1.875 -0.195312 1.875 -0.59375 L 1.875 -29.359375 C 1.875 -29.765625 2.070312 -29.96875 2.46875 -29.96875 L 11.875 -29.96875 C 13.644531 -29.96875 14.984375 -29.507812 15.890625 -28.59375 C 16.804688 -27.6875 17.265625 -26.34375 17.265625 -24.5625 Z M 6.96875 -14.984375 L 10.671875 -14.984375 C 11.671875 -14.984375 12.171875 -15.484375 12.171875 -16.484375 L 12.171875 -23.515625 C 12.171875 -24.515625 11.671875 -25.015625 10.671875 -25.015625 L 6.96875 -25.015625 Z M 6.96875 -14.984375 "/></g></g></g><g fill="#4d4d4d" fill-opacity="1"><g transform="translate(152.347194, 244.307914)"><g><path d="M 12.65625 -29.96875 L 16.109375 -29.96875 C 16.304688 -29.96875 16.476562 -29.890625 16.625 -29.734375 C 16.78125 -29.585938 16.859375 -29.414062 16.859375 -29.21875 L 16.859375 -5.390625 C 16.859375 -3.640625 16.398438 -2.300781 15.484375 -1.375 C 14.578125 -0.457031 13.234375 0 11.453125 0 L 7.265625 0 C 5.515625 0 4.175781 -0.457031 3.25 -1.375 C 2.332031 -2.300781 1.875 -3.640625 1.875 -5.390625 L 1.875 -29.21875 C 1.875 -29.414062 1.945312 -29.585938 2.09375 -29.734375 C 2.25 -29.890625 2.425781 -29.96875 2.625 -29.96875 L 6.21875 -29.96875 C 6.414062 -29.96875 6.585938 -29.890625 6.734375 -29.734375 C 6.890625 -29.585938 6.96875 -29.414062 6.96875 -29.21875 L 6.96875 -6.4375 C 6.96875 -5.4375 7.46875 -4.9375 8.46875 -4.9375 L 10.40625 -4.9375 C 11.40625 -4.9375 11.90625 -5.4375 11.90625 -6.4375 L 11.90625 -29.21875 C 11.90625 -29.414062 11.976562 -29.585938 12.125 -29.734375 C 12.28125 -29.890625 12.457031 -29.96875 12.65625 -29.96875 Z M 12.65625 -29.96875 "/></g></g></g><g fill="#4d4d4d" fill-opacity="1"><g transform="translate(178.595145, 244.307914)"><g><path d="M 1.875 -0.59375 L 1.875 -29.359375 C 1.875 -29.765625 2.070312 -29.96875 2.46875 -29.96875 L 11.453125 -29.96875 C 13.234375 -29.96875 14.578125 -29.503906 15.484375 -28.578125 C 16.398438 -27.648438 16.859375 -26.300781 16.859375 -24.53125 L 16.859375 -5.390625 C 16.859375 -3.640625 16.398438 -2.300781 15.484375 -1.375 C 14.578125 -0.457031 13.234375 0 11.453125 0 L 2.46875 0 C 2.070312 0 1.875 -0.195312 1.875 -0.59375 Z M 6.96875 -4.9375 L 10.40625 -4.9375 C 11.40625 -4.9375 11.90625 -5.4375 11.90625 -6.4375 L 11.90625 -23.484375 C 11.90625 -24.503906 11.40625 -25.015625 10.40625 -25.015625 L 6.96875 -25.015625 Z M 6.96875 -4.9375 "/></g></g></g><g fill="#4d4d4d" fill-opacity="1"><g transform="translate(204.843095, 244.307914)"><g><path d="M 16.8125 -29.359375 L 16.8125 -25.625 C 16.8125 -25.195312 16.613281 -24.984375 16.21875 -24.984375 L 6.859375 -24.984375 L 6.859375 -17.484375 L 14 -17.484375 C 14.40625 -17.484375 14.609375 -17.273438 14.609375 -16.859375 L 14.609375 -13.140625 C 14.609375 -12.722656 14.40625 -12.515625 14 -12.515625 L 6.859375 -12.515625 L 6.859375 -4.9375 L 16.21875 -4.9375 C 16.613281 -4.9375 16.8125 -4.738281 16.8125 -4.34375 L 16.8125 -0.59375 C 16.8125 -0.195312 16.613281 0 16.21875 0 L 2.4375 0 C 2.0625 0 1.875 -0.195312 1.875 -0.59375 L 1.875 -29.359375 C 1.875 -29.765625 2.0625 -29.96875 2.4375 -29.96875 L 16.21875 -29.96875 C 16.613281 -29.96875 16.8125 -29.765625 16.8125 -29.359375 Z M 16.8125 -29.359375 "/></g></g></g><g fill="#4d4d4d" fill-opacity="1"><g transform="translate(231.053599, 244.307914)"><g><path d="M 13.375 -29.96875 L 17.265625 -29.96875 C 17.660156 -29.96875 17.859375 -29.765625 17.859375 -29.359375 L 17.859375 -0.59375 C 17.859375 -0.195312 17.660156 0 17.265625 0 L 13.5625 0 C 13.207031 0 12.984375 -0.160156 12.890625 -0.484375 L 7.15625 -16.484375 L 6.96875 -16.484375 L 6.96875 -0.59375 C 6.96875 -0.195312 6.765625 0 6.359375 0 L 2.46875 0 C 2.070312 0 1.875 -0.195312 1.875 -0.59375 L 1.875 -29.359375 C 1.875 -29.765625 2.070312 -29.96875 2.46875 -29.96875 L 6.1875 -29.96875 C 6.53125 -29.96875 6.753906 -29.800781 6.859375 -29.46875 L 12.546875 -13.5625 L 12.765625 -13.5625 L 12.765625 -29.359375 C 12.765625 -29.765625 12.96875 -29.96875 13.375 -29.96875 Z M 13.375 -29.96875 "/></g></g></g><g fill="#4d4d4d" fill-opacity="1"><g transform="translate(258.312463, 244.307914)"><g><path d="M 1.71875 -29.96875 L 15.5 -29.96875 C 15.90625 -29.96875 16.109375 -29.765625 16.109375 -29.359375 L 16.109375 -25.625 C 16.109375 -25.21875 15.90625 -25.015625 15.5 -25.015625 L 11.15625 -25.015625 L 11.15625 -0.59375 C 11.15625 -0.195312 10.957031 0 10.5625 0 L 6.671875 0 C 6.265625 0 6.0625 -0.195312 6.0625 -0.59375 L 6.0625 -25.015625 L 1.71875 -25.015625 C 1.320312 -25.015625 1.125 -25.21875 1.125 -25.625 L 1.125 -29.359375 C 1.125 -29.765625 1.320312 -29.96875 1.71875 -29.96875 Z M 1.71875 -29.96875 "/></g></g></g></svg>